<svg xmlns="http://www.w3.org/2000/svg" height="512pt" version="1.1" viewBox="0 -9 512.00234 512" width="512pt">
<g id="surface1">
<path d="M 480.910156 423.75 L 480.675781 420.648438 L 399.949219 429.683594 L 402.8125 459.347656 C 403.257812 463.871094 403.960938 468.5 407.210938 471.085938 C 408.960938 472.476562 411.332031 473.15625 414.464844 473.15625 C 416.164062 473.15625 417.898438 472.96875 419.519531 472.765625 L 483.753906 464.796875 L 483.574219 461.976562 C 482.792969 449.5625 481.894531 436.703125 480.910156 423.75 Z M 480.910156 423.75 " style=" stroke:none;fill-rule:nonzero;fill:rgb(84.705882%,87.058824%,92.54902%);fill-opacity:1;" />
<path d="M 464.597656 264.808594 C 464.265625 262.203125 463.925781 259.605469 463.574219 257.015625 C 463.4375 255.996094 463.363281 254.828125 463.28125 253.59375 L 463.242188 253.015625 C 462.878906 247.371094 462.425781 240.339844 457.316406 238.449219 C 455.625 237.816406 453.5625 237.507812 451.019531 237.507812 C 446.507812 237.507812 441.144531 238.507812 436.824219 239.308594 C 433.855469 239.871094 431.414062 240.3125 429.269531 240.546875 L 396.503906 243.976562 C 391.222656 244.539062 386.054688 245.621094 383.988281 249.691406 C 382.84375 251.96875 382.996094 254.65625 383.292969 257.675781 L 385.324219 278.695312 L 464.96875 267.757812 Z M 464.597656 264.808594 " style=" stroke:none;fill-rule:nonzero;fill:rgb(84.705882%,87.058824%,92.54902%);fill-opacity:1;" />
<path d="M 354.015625 264.523438 C 349.394531 261.273438 340.851562 260.644531 334 260.136719 L 333.632812 260.109375 C 330.964844 259.902344 328.441406 259.710938 326.359375 259.394531 L 293.816406 254.355469 C 291.574219 254 289.789062 253.835938 288.199219 253.835938 C 284.554688 253.835938 281.953125 254.765625 280.246094 256.679688 C 278.5625 258.582031 278.039062 261.113281 277.53125 264.226562 L 275.066406 279.359375 L 275.234375 280.109375 C 275.234375 280.171875 275.21875 280.273438 275.128906 280.414062 L 274.800781 280.941406 L 274.167969 285.070312 L 353.941406 294.828125 L 354.347656 291.699219 C 354.683594 289.140625 355.015625 286.59375 355.324219 284.09375 C 355.480469 282.917969 355.730469 281.613281 356.039062 280.078125 C 357.117188 274.542969 358.464844 267.65625 354.015625 264.523438 Z M 354.015625 264.523438 " style=" stroke:none;fill-rule:nonzero;fill:rgb(84.705882%,87.058824%,92.54902%);fill-opacity:1;" />
<path d="M 244.929688 464.203125 C 244.203125 468.695312 243.707031 473.359375 246.183594 476.671875 C 248.640625 479.96875 253.199219 480.835938 257.65625 481.441406 L 321.796875 490.121094 L 322.34375 487.351562 C 324.757812 475.160156 327.175781 462.496094 329.523438 449.710938 L 330.082031 446.652344 L 249.726562 434.789062 Z M 244.929688 464.203125 " style=" stroke:none;fill-rule:nonzero;fill:rgb(84.705882%,87.058824%,92.54902%);fill-opacity:1;" />
<path d="M 224.550781 240.316406 L 224.1875 240.289062 C 221.515625 240.085938 218.992188 239.890625 216.902344 239.574219 L 207.503906 238.113281 C 199.78125 236.914062 192.070312 235.722656 184.367188 234.535156 C 182.050781 234.171875 180.316406 234.007812 178.75 234.007812 C 175.109375 234.007812 172.511719 234.9375 170.796875 236.859375 C 169.113281 238.761719 168.589844 241.289062 168.082031 244.398438 L 164.6875 265.238281 L 244.476562 275.007812 L 244.863281 272.058594 C 245.207031 269.457031 245.546875 266.84375 245.875 264.269531 C 246.027344 263.101562 246.273438 261.851562 246.589844 260.257812 C 247.667969 254.722656 249.015625 247.835938 244.566406 244.707031 C 239.945312 241.453125 231.402344 240.824219 224.550781 240.316406 Z M 224.550781 240.316406 " style=" stroke:none;fill-rule:nonzero;fill:rgb(84.705882%,87.058824%,92.54902%);fill-opacity:1;" />
<path d="M 135.476562 444.382812 C 134.753906 448.871094 134.257812 453.535156 136.730469 456.835938 C 139.199219 460.160156 143.757812 461.019531 148.207031 461.609375 L 212.34375 470.300781 L 212.894531 467.53125 C 215.195312 455.902344 217.542969 443.589844 220.070312 429.890625 L 220.636719 426.832031 L 140.273438 414.96875 Z M 135.476562 444.382812 " style=" stroke:none;fill-rule:nonzero;fill:rgb(84.705882%,87.058824%,92.54902%);fill-opacity:1;" />
<path d="M 98.875 426.375 L 98.695312 423.269531 L 17.828125 430.878906 L 20.167969 460.578125 C 20.519531 465.101562 21.128906 469.742188 24.355469 472.40625 C 26.75 474.371094 29.871094 474.597656 32.007812 474.597656 C 33.566406 474.597656 35.144531 474.457031 36.625 474.300781 L 100.996094 467.460938 L 100.867188 464.640625 C 100.308594 452.4375 99.640625 439.5625 98.875 426.375 Z M 98.875 426.375 " style=" stroke:none;fill-rule:nonzero;fill:rgb(84.705882%,87.058824%,92.54902%);fill-opacity:1;" />
<path d="M 85.390625 267.175781 C 85.101562 264.5625 84.8125 261.949219 84.511719 259.371094 C 84.378906 258.140625 84.308594 256.671875 84.246094 255.371094 C 83.988281 249.714844 83.664062 242.675781 78.574219 240.679688 C 76.75 239.972656 74.507812 239.628906 71.71875 239.628906 C 67.273438 239.628906 62.175781 240.496094 58.085938 241.1875 L 57.957031 241.210938 C 55.238281 241.664062 52.667969 242.09375 50.5 242.277344 L 17.679688 245.128906 C 12.644531 245.570312 7.210938 246.566406 5.066406 250.621094 C 3.882812 252.867188 3.980469 255.453125 4.230469 258.59375 L 5.882812 279.648438 L 85.722656 270.136719 Z M 85.390625 267.175781 " style=" stroke:none;fill-rule:nonzero;fill:rgb(84.705882%,87.058824%,92.54902%);fill-opacity:1;" />
<path d="M 97.714844 407.253906 L 97.515625 404.222656 L 16.222656 410.574219 L 17.738281 429.808594 L 98.636719 422.207031 L 98.464844 419.308594 C 98.226562 415.292969 97.976562 411.269531 97.714844 407.253906 Z M 97.714844 407.253906 " style=" stroke:none;fill-rule:nonzero;fill:rgb(35.686275%,81.568627%,98.823529%);fill-opacity:1;" />
<path d="M 87.355469 285.246094 L 87.042969 282.316406 C 86.757812 279.609375 86.46875 276.90625 86.171875 274.203125 L 85.839844 271.191406 L 5.972656 280.710938 L 7.125 295.324219 L 84.441406 285.691406 Z M 87.355469 285.246094 " style=" stroke:none;fill-rule:nonzero;fill:rgb(35.686275%,81.568627%,98.823529%);fill-opacity:1;" />
<path d="M 58.628906 320.144531 C 55.792969 318.199219 53.171875 317.25 50.621094 317.25 C 49.097656 317.25 47.625 317.59375 46.246094 318.273438 C 37.851562 322.40625 34.03125 338.011719 33.59375 346.882812 C 33.097656 357.28125 35.425781 367.265625 40.332031 375.746094 C 42.839844 380.09375 45.550781 383.226562 48.609375 385.316406 C 51.417969 387.25 54.679688 388.3125 57.796875 388.3125 C 58.945312 388.3125 60.066406 388.167969 61.117188 387.882812 C 70.726562 385.308594 73.15625 372.929688 73.671875 369.195312 C 74.742188 361.402344 74.160156 351.683594 72.121094 343.199219 C 70.316406 335.699219 66.515625 325.613281 58.628906 320.144531 Z M 58.628906 320.144531 " style=" stroke:none;fill-rule:nonzero;fill:rgb(35.686275%,81.568627%,98.823529%);fill-opacity:1;" />
<path d="M 24.035156 197.785156 C 20.566406 198.136719 17.140625 198.898438 13.890625 200.03125 C 13.671875 200.105469 13.507812 200.164062 13.359375 200.222656 L 11.480469 200.980469 L 11.542969 244.796875 L 14.9375 244.34375 C 15.875 244.214844 16.726562 244.144531 17.449219 244.078125 L 17.59375 244.066406 C 24.386719 243.46875 31.1875 242.882812 37.984375 242.296875 L 50.414062 241.214844 C 52.589844 241.023438 55.207031 240.589844 57.902344 240.128906 L 58.054688 240.101562 C 62.324219 239.394531 66.742188 238.664062 70.847656 238.566406 L 73.957031 238.5 L 71.773438 201.21875 C 71.652344 199.054688 71.386719 198.050781 70.730469 197.242188 L 70.253906 196.652344 L 69.554688 196.359375 C 69.101562 196.171875 68.621094 196.085938 68.035156 196.085938 C 67.28125 196.085938 66.34375 196.230469 65.28125 196.40625 L 65.121094 196.433594 C 64.226562 196.585938 63.21875 196.753906 62.242188 196.753906 C 60.777344 196.753906 59.769531 196.382812 58.964844 195.554688 C 58.058594 194.617188 57.769531 193.304688 57.539062 192.246094 L 57.519531 192.144531 C 55.152344 181.410156 52.703125 170.304688 47.449219 160.550781 C 46.828125 159.40625 46.386719 158.734375 45.691406 158.257812 L 45.515625 158.136719 L 45.320312 158.039062 C 44.640625 157.703125 43.957031 157.664062 43.503906 157.664062 C 42.980469 157.664062 42.308594 157.726562 41.441406 157.851562 C 36.21875 158.621094 30.9375 159.5625 25.742188 160.652344 L 23.171875 161.195312 L 23.367188 163.8125 C 24.203125 174.898438 24.589844 186.148438 24.519531 197.253906 C 24.519531 197.527344 24.3125 197.757812 24.035156 197.785156 Z M 24.035156 197.785156 " style=" stroke:none;fill-rule:nonzero;fill:rgb(35.686275%,81.568627%,98.823529%);fill-opacity:1;" />
<path d="M 480.441406 6.671875 L 479.972656 4.089844 L 427.59375 6.5 C 423.375 6.691406 412.9375 7.132812 398.234375 7.75 C 329.210938 10.648438 119.15625 19.476562 92.964844 23.046875 L 90.183594 23.425781 L 108.828125 291.519531 L 156.582031 287.238281 C 156.605469 287.238281 156.652344 287.242188 156.722656 287.257812 L 159.886719 288.046875 L 167.03125 244.222656 C 167.421875 241.785156 167.957031 238.449219 170.003906 236.140625 C 171.332031 234.644531 173.117188 233.691406 175.460938 233.230469 L 177.339844 232.863281 L 187.214844 192.304688 C 187.417969 191.476562 187.667969 190.445312 188.46875 189.71875 C 189.308594 188.949219 190.523438 188.832031 191.253906 188.765625 C 192.707031 188.625 194.191406 188.554688 195.667969 188.554688 C 196.761719 188.554688 197.875 188.59375 198.972656 188.671875 L 201.492188 188.847656 L 202.09375 186.390625 C 204.707031 175.6875 206.921875 164.6875 208.671875 153.703125 C 208.714844 153.429688 208.980469 153.246094 209.21875 153.246094 C 215.480469 153.375 221.90625 153.742188 228.324219 154.347656 C 229.703125 154.480469 231.589844 154.667969 232.867188 155.9375 C 233.839844 156.902344 234.214844 158.34375 234.4375 159.203125 C 237.261719 170.097656 236.988281 181.578125 236.722656 192.671875 C 236.695312 193.5625 236.707031 194.191406 236.832031 194.753906 L 237.152344 196.195312 L 238.492188 196.816406 C 239.300781 197.195312 240.347656 197.332031 242.140625 197.460938 C 244.757812 197.652344 246.703125 197.914062 247.894531 199.578125 C 249.082031 201.234375 248.671875 203.460938 248.398438 204.945312 L 241.609375 241.828125 L 243.554688 242.859375 C 244.238281 243.222656 244.753906 243.53125 245.183594 243.832031 C 249.824219 247.101562 249.03125 253.316406 247.613281 260.539062 L 247.578125 260.730469 C 247.320312 262.050781 247.078125 263.296875 246.945312 264.382812 L 246.59375 267.109375 C 246.070312 271.160156 245.542969 275.234375 245.003906 279.304688 L 244.5 283.128906 L 273.925781 279.675781 L 276.480469 264.042969 C 276.894531 261.46875 277.40625 258.265625 279.457031 255.964844 C 280.78125 254.464844 282.566406 253.511719 284.910156 253.050781 L 286.792969 252.683594 L 296.667969 212.128906 C 296.867188 211.300781 297.113281 210.265625 297.910156 209.546875 C 298.765625 208.769531 299.976562 208.652344 300.714844 208.582031 C 302.148438 208.441406 303.601562 208.371094 305.042969 208.371094 C 306.160156 208.371094 307.292969 208.414062 308.410156 208.5 L 310.953125 208.695312 L 311.554688 206.214844 C 314.167969 195.46875 316.378906 184.46875 318.121094 173.523438 C 318.164062 173.253906 318.433594 173.066406 318.664062 173.066406 C 325.109375 173.207031 331.535156 173.582031 337.773438 174.175781 C 338.992188 174.289062 341.03125 174.476562 342.316406 175.757812 C 343.292969 176.722656 343.664062 178.160156 343.886719 179.019531 C 346.710938 189.917969 346.4375 201.394531 346.171875 212.5 C 346.144531 213.390625 346.15625 214.019531 346.285156 214.582031 L 346.609375 216.015625 L 347.941406 216.636719 C 348.75 217.015625 349.753906 217.144531 351.574219 217.28125 C 354.199219 217.472656 356.148438 217.734375 357.34375 219.398438 C 358.535156 221.058594 358.125 223.285156 357.851562 224.765625 L 351.0625 261.652344 L 353.007812 262.679688 C 353.6875 263.039062 354.203125 263.347656 354.632812 263.652344 C 356.964844 265.292969 358.085938 267.753906 358.171875 271.398438 L 358.246094 274.71875 L 383.558594 271.53125 L 382.226562 257.773438 C 381.96875 255.179688 381.648438 251.953125 383.035156 249.210938 C 383.949219 247.414062 385.433594 246.035156 387.570312 244.996094 L 389.296875 244.160156 L 388.488281 202.429688 C 388.472656 201.574219 388.453125 200.507812 389.042969 199.601562 C 389.652344 198.652344 390.761719 198.238281 391.5 197.960938 C 393.90625 197.070312 396.402344 196.382812 398.917969 195.917969 L 401.417969 195.453125 L 401.371094 192.910156 C 401.15625 181.796875 400.492188 170.597656 399.386719 159.628906 C 399.359375 159.351562 399.527344 159.105469 399.796875 159.042969 C 405.988281 157.546875 412.292969 156.265625 418.566406 155.222656 C 419.238281 155.113281 420 154.992188 420.804688 154.992188 C 421.808594 154.992188 422.636719 155.191406 423.359375 155.609375 C 424.550781 156.296875 425.261719 157.578125 425.695312 158.367188 C 431.226562 168.203125 433.882812 179.355469 436.449219 190.136719 C 436.636719 190.929688 436.808594 191.558594 437.046875 192.050781 L 437.730469 193.460938 L 439.277344 193.710938 C 439.476562 193.742188 439.71875 193.765625 440 193.765625 C 440.816406 193.765625 441.835938 193.585938 442.898438 193.386719 C 443.917969 193.195312 444.972656 192.996094 446.007812 192.996094 C 447.28125 192.996094 448.210938 193.292969 449.019531 193.957031 C 450.582031 195.253906 450.757812 197.496094 450.878906 199.015625 L 453.726562 236.433594 L 455.886719 236.925781 C 456.59375 237.082031 457.179688 237.253906 457.6875 237.441406 C 463.023438 239.425781 463.84375 245.644531 464.308594 253 L 464.375 253.945312 C 464.410156 254.4375 464.441406 254.914062 464.480469 255.371094 L 464.730469 258.476562 L 507.914062 253.316406 L 507.789062 250.539062 C 504.191406 169.011719 494.992188 86.964844 480.441406 6.671875 Z M 192.878906 115.59375 C 186.496094 121.359375 177.644531 124.667969 168.589844 124.667969 C 162.113281 124.667969 155.875 123.011719 150.550781 119.871094 C 137.394531 112.136719 130.292969 95.699219 133.667969 80.789062 C 136.980469 66.082031 149.128906 55.503906 164.625 53.839844 C 166.054688 53.6875 167.496094 53.605469 168.914062 53.605469 C 183.066406 53.605469 195.492188 61.394531 201.339844 73.925781 C 207.808594 87.792969 204.25 105.316406 192.878906 115.59375 Z M 305.566406 99.042969 L 298.613281 99.917969 C 280.390625 102.210938 263.183594 104.378906 245.800781 109.867188 C 243.769531 110.5 241.480469 110.839844 239.179688 110.839844 C 233.507812 110.839844 228.847656 108.917969 226.386719 105.5625 C 224.84375 103.464844 224.347656 100.859375 224.945312 98.027344 C 225.734375 94.289062 228.480469 90.5 231.773438 88.601562 C 236.574219 85.84375 242.316406 85.523438 246.214844 85.523438 C 247.4375 85.523438 248.757812 85.558594 250.367188 85.636719 L 254.058594 85.804688 L 253.46875 82.160156 C 252.550781 76.496094 251.703125 70.453125 252.277344 64.363281 C 252.964844 56.921875 255.847656 50.671875 260.398438 46.769531 C 263.910156 43.765625 268.675781 42.113281 273.820312 42.113281 C 279.804688 42.113281 285.871094 44.371094 290.46875 48.308594 C 297.363281 54.214844 301.773438 63.992188 302.566406 75.132812 L 302.875 79.46875 L 306.820312 77.640625 C 310.398438 75.984375 314.429688 75.105469 318.476562 75.105469 C 321.957031 75.105469 325.300781 75.734375 328.410156 76.976562 C 335.855469 79.9375 341.839844 86.421875 344.257812 94.050781 Z M 446.058594 97.230469 C 444.109375 101.8125 437.929688 103.105469 432.761719 103.71875 L 417.589844 105.550781 L 421.476562 120.433594 C 421.898438 122.046875 423.175781 126.964844 420.523438 128.902344 C 419.773438 129.449219 418.753906 129.695312 417.726562 129.9375 L 403.523438 133.316406 L 402.351562 107.375 L 381.878906 109.839844 C 380.796875 109.96875 379.875 110.027344 379.058594 110.027344 C 375.707031 110.027344 374.558594 108.945312 373.984375 108.125 C 373.503906 107.4375 373.269531 106.59375 373.269531 105.546875 C 373.269531 103.898438 373.839844 102.226562 374.21875 101.117188 C 377.695312 90.917969 381.644531 80.75 385.960938 70.886719 C 386.46875 69.71875 387.023438 68.285156 387.664062 66.625 L 388.050781 65.621094 C 391.511719 56.597656 397.304688 41.496094 405.101562 39.285156 C 405.75 39.101562 406.410156 39.007812 407.054688 39.007812 C 408.925781 39.007812 410.894531 39.785156 412.898438 41.3125 C 425.03125 50.574219 434.527344 68.199219 442.160156 82.359375 L 443.601562 85.035156 C 445.71875 88.953125 447.667969 93.464844 446.058594 97.230469 Z M 446.058594 97.230469 " style=" stroke:none;fill-rule:nonzero;fill:rgb(100%,100%,100%);fill-opacity:1;" />
<path d="M 93.367188 348.617188 C 91.730469 329.15625 89.847656 309.125 87.761719 289.046875 C 87.667969 288.246094 87.585938 287.4375 87.503906 286.636719 L 87.171875 283.382812 L 6.976562 293.367188 L 16.375 412.523438 L 97.640625 406.167969 L 97.445312 403.210938 C 96.210938 384.476562 94.839844 366.105469 93.367188 348.617188 Z M 71.726562 368.921875 C 70.476562 378.082031 66.320312 384.460938 60.601562 385.992188 C 59.683594 386.242188 58.726562 386.367188 57.757812 386.367188 C 55.042969 386.367188 52.261719 385.445312 49.71875 383.703125 C 46.902344 381.769531 44.386719 378.847656 42.027344 374.765625 C 37.300781 366.589844 35.0625 356.984375 35.554688 346.984375 C 35.980469 338.199219 39.945312 323.558594 47.109375 320.027344 C 48.253906 319.464844 49.398438 319.1875 50.609375 319.1875 C 52.726562 319.1875 55.050781 320.054688 57.519531 321.761719 C 70.410156 330.695312 73.617188 355.183594 71.726562 368.921875 Z M 71.726562 368.921875 " style=" stroke:none;fill-rule:nonzero;fill:rgb(100%,100%,100%);fill-opacity:1;" />
<path d="M 143.234375 396.796875 L 223.679688 409.96875 L 224.195312 407.050781 C 227.445312 388.652344 230.484375 370.484375 233.222656 353.058594 C 236.285156 333.664062 239.222656 313.761719 241.945312 293.925781 C 242.03125 293.34375 242.109375 292.757812 242.1875 292.175781 L 242.722656 288.214844 L 162.46875 278.824219 Z M 177.464844 337.703125 C 180.050781 329.023438 187.234375 316.019531 195.105469 314.277344 C 195.710938 314.144531 196.3125 314.078125 196.894531 314.078125 C 199.574219 314.078125 202.234375 315.546875 204.804688 318.449219 C 215.191406 330.167969 212.480469 354.71875 207.382812 367.625 C 203.980469 376.21875 198.425781 381.425781 192.589844 381.558594 L 192.289062 381.558594 C 188.796875 381.558594 185.222656 379.804688 182.488281 376.75 C 180.210938 374.199219 178.460938 370.757812 177.140625 366.230469 C 174.5 357.167969 174.613281 347.304688 177.464844 337.703125 Z M 177.464844 337.703125 " style=" stroke:none;fill-rule:nonzero;fill:rgb(100%,100%,100%);fill-opacity:1;" />
<path d="M 474.015625 346.105469 C 471.996094 326.308594 469.753906 306.316406 467.351562 286.699219 C 467.25 285.808594 467.140625 284.90625 467.027344 284.015625 L 466.648438 280.988281 L 386.648438 292.394531 L 398.171875 411.359375 L 479.316406 403.574219 L 479.070312 400.617188 C 477.511719 382.0625 475.808594 363.722656 474.015625 346.105469 Z M 452.742188 366.785156 C 451.648438 375.964844 447.605469 382.421875 441.929688 384.054688 C 440.957031 384.335938 439.925781 384.476562 438.867188 384.476562 C 436.226562 384.476562 433.503906 383.605469 431.007812 381.964844 C 428.152344 380.074219 425.582031 377.195312 423.152344 373.160156 C 418.285156 365.070312 415.878906 355.5 416.1875 345.488281 C 416.648438 330.457031 422.9375 320.566406 427.257812 318.34375 C 428.4375 317.730469 429.625 317.433594 430.890625 317.433594 C 432.960938 317.433594 435.25 318.261719 437.695312 319.894531 C 450.734375 328.585938 454.382812 353.011719 452.742188 366.785156 Z M 452.742188 366.785156 " style=" stroke:none;fill-rule:nonzero;fill:rgb(100%,100%,100%);fill-opacity:1;" />
<path d="M 252.6875 416.613281 L 333.128906 429.796875 L 333.644531 426.878906 C 336.890625 408.5 339.929688 390.328125 342.671875 372.875 C 345.757812 353.355469 348.691406 333.449219 351.398438 313.746094 C 351.464844 313.292969 351.523438 312.839844 351.585938 312.386719 C 351.644531 311.957031 351.703125 311.523438 351.765625 311.097656 L 352.21875 308.039062 L 271.921875 298.644531 Z M 286.925781 357.523438 C 289.425781 349.09375 296.757812 335.824219 304.558594 334.097656 C 305.160156 333.964844 305.761719 333.898438 306.34375 333.898438 C 309.023438 333.898438 311.6875 335.367188 314.253906 338.269531 C 324.652344 350 321.9375 374.546875 316.832031 387.445312 C 313.433594 396.039062 307.878906 401.246094 302.039062 401.378906 C 301.9375 401.378906 301.839844 401.382812 301.75 401.390625 C 298.300781 401.390625 294.632812 399.589844 291.9375 396.574219 C 289.664062 394.023438 287.914062 390.582031 286.589844 386.058594 C 283.945312 376.988281 284.0625 367.121094 286.925781 357.523438 Z M 286.925781 357.523438 " style=" stroke:none;fill-rule:nonzero;fill:rgb(100%,100%,100%);fill-opacity:1;" />
<path d="M 443.890625 81.433594 C 436.164062 67.097656 426.546875 49.257812 414.089844 39.753906 C 411.738281 37.960938 409.375 37.054688 407.054688 37.054688 C 406.222656 37.054688 405.386719 37.171875 404.570312 37.402344 C 396.492188 39.699219 391.074219 52.253906 386.21875 64.921875 C 385.363281 67.167969 384.71875 68.816406 384.164062 70.105469 C 379.863281 79.910156 375.894531 90.128906 372.371094 100.480469 C 371.378906 103.390625 370.605469 106.707031 372.386719 109.265625 C 373.664062 111.082031 375.898438 112 379.03125 112 C 379.925781 112 380.902344 111.933594 382.109375 111.789062 L 432.996094 105.667969 C 439.035156 104.949219 445.523438 103.472656 447.859375 98.007812 C 449.800781 93.460938 447.671875 88.429688 445.335938 84.121094 Z M 443.890625 81.433594 " style=" stroke:none;fill-rule:nonzero;fill:rgb(79.607843%,89.803922%,50.196078%);fill-opacity:1;" />
<path d="M 356.464844 219.820312 L 355.8125 219.332031 C 354.917969 218.667969 353.800781 218.496094 351.496094 218.347656 C 348.871094 218.15625 346.777344 217.863281 345.699219 216.011719 C 345.046875 214.894531 345.074219 213.558594 345.097656 212.46875 C 345.363281 201.445312 345.640625 190.042969 342.851562 179.285156 C 342.53125 178.066406 342.234375 177.238281 341.644531 176.601562 L 341.542969 176.492188 L 341.429688 176.390625 C 340.675781 175.722656 339.691406 175.421875 337.660156 175.230469 C 332.335938 174.730469 326.976562 174.386719 321.734375 174.21875 L 319.109375 174.132812 L 318.679688 176.726562 C 316.863281 187.632812 314.5625 198.652344 311.839844 209.476562 C 311.78125 209.710938 311.570312 209.878906 311.265625 209.878906 C 311.261719 209.878906 311.257812 209.878906 311.253906 209.878906 C 309.226562 209.585938 307.152344 209.441406 305.097656 209.441406 C 303.671875 209.441406 302.226562 209.511719 300.902344 209.644531 C 300.597656 209.664062 300.355469 209.691406 300.152344 209.730469 L 298.445312 210.066406 L 297.886719 211.714844 C 297.804688 211.964844 297.734375 212.242188 297.691406 212.4375 L 287.910156 252.578125 L 291.332031 252.929688 C 292.25 253.027344 293.085938 253.15625 293.824219 253.269531 L 326.511719 258.332031 C 328.671875 258.667969 331.292969 258.863281 334.070312 259.066406 C 338.207031 259.371094 342.894531 259.710938 347 260.625 L 350.039062 261.300781 L 356.800781 224.574219 C 357.179688 222.539062 357.171875 221.492188 356.78125 220.566406 Z M 356.464844 219.820312 " style=" stroke:none;fill-rule:nonzero;fill:rgb(79.607843%,89.803922%,50.196078%);fill-opacity:1;" />
<path d="M 271.605469 300.582031 L 351.914062 309.980469 L 352.3125 307.0625 C 352.679688 304.335938 353.042969 301.613281 353.402344 298.890625 L 353.800781 295.886719 L 273.960938 286.121094 Z M 271.605469 300.582031 " style=" stroke:none;fill-rule:nonzero;fill:rgb(79.607843%,89.803922%,50.196078%);fill-opacity:1;" />
<path d="M 249.898438 433.730469 L 330.28125 445.597656 L 330.878906 442.3125 C 331.574219 438.492188 332.269531 434.679688 332.945312 430.859375 L 333.472656 427.871094 L 253 414.679688 Z M 249.898438 433.730469 " style=" stroke:none;fill-rule:nonzero;fill:rgb(79.607843%,89.803922%,50.196078%);fill-opacity:1;" />
<path d="M 301.78125 403.339844 L 302.015625 403.335938 C 311.988281 403.117188 317.269531 391.671875 318.648438 388.171875 C 321.546875 380.855469 323.296875 371.28125 323.335938 362.554688 C 323.367188 354.839844 322.074219 344.140625 315.71875 336.972656 C 312.773438 333.636719 309.609375 331.945312 306.316406 331.945312 C 305.589844 331.945312 304.851562 332.027344 304.132812 332.1875 C 294.980469 334.210938 287.566406 348.460938 285.042969 356.964844 C 282.078125 366.945312 281.960938 377.195312 284.710938 386.605469 C 286.105469 391.414062 287.992188 395.097656 290.476562 397.878906 C 293.539062 401.296875 297.765625 403.339844 301.78125 403.339844 Z M 301.78125 403.339844 " style=" stroke:none;fill-rule:nonzero;fill:rgb(79.607843%,89.803922%,50.196078%);fill-opacity:1;" />
<path d="M 329.128906 75.148438 C 325.773438 73.816406 322.183594 73.136719 318.453125 73.136719 C 313.550781 73.136719 308.804688 74.308594 304.605469 76.546875 C 304.09375 64.191406 299.453125 53.425781 291.742188 46.820312 C 286.84375 42.617188 280.300781 40.207031 273.796875 40.207031 C 268.164062 40.207031 262.957031 42.007812 259.128906 45.277344 C 254.191406 49.507812 251.066406 56.226562 250.320312 64.1875 C 249.703125 70.8125 250.6875 77.375 251.738281 83.738281 C 250.023438 83.648438 248.15625 83.566406 246.269531 83.566406 C 242.109375 83.566406 235.976562 83.914062 230.796875 86.90625 C 226.921875 89.128906 223.945312 93.234375 223.023438 97.625 C 222.308594 101.03125 222.929688 104.179688 224.808594 106.722656 C 227.648438 110.59375 232.882812 112.8125 239.167969 112.8125 C 241.65625 112.8125 244.148438 112.441406 246.382812 111.738281 C 263.5625 106.316406 280.648438 104.160156 298.742188 101.875 L 298.894531 101.855469 C 301.191406 101.574219 303.5 101.285156 305.800781 100.984375 L 346.992188 95.679688 L 345.667969 92.136719 C 342.8125 84.488281 336.628906 78.136719 329.128906 75.148438 Z M 329.128906 75.148438 " style=" stroke:none;fill-rule:nonzero;fill:rgb(69.803922%,91.764706%,97.647059%);fill-opacity:1;" />
<path d="M 479.398438 404.640625 L 479.148438 401.609375 L 397.984375 409.410156 L 399.835938 428.628906 L 480.601562 419.578125 L 480.285156 415.613281 C 479.992188 411.957031 479.699219 408.296875 479.398438 404.640625 Z M 479.398438 404.640625 " style=" stroke:none;fill-rule:nonzero;fill:rgb(96.862745%,70.196078%,43.529412%);fill-opacity:1;" />
<path d="M 465.132812 268.824219 L 385.429688 279.757812 L 386.835938 294.351562 L 466.894531 282.933594 Z M 465.132812 268.824219 " style=" stroke:none;fill-rule:nonzero;fill:rgb(96.862745%,70.196078%,43.529412%);fill-opacity:1;" />
<path d="M 438.789062 318.265625 C 435.996094 316.398438 433.417969 315.488281 430.898438 315.488281 C 429.304688 315.488281 427.773438 315.867188 426.355469 316.601562 C 418.046875 320.878906 414.503906 336.550781 414.21875 345.425781 C 413.902344 355.824219 416.410156 365.765625 421.46875 374.175781 C 424.058594 378.476562 426.824219 381.558594 429.921875 383.59375 C 432.695312 385.421875 435.894531 386.429688 438.921875 386.429688 C 440.152344 386.429688 441.347656 386.265625 442.46875 385.941406 C 452.042969 383.179688 454.242188 370.761719 454.6875 367.023438 C 455.617188 359.210938 454.867188 349.503906 452.675781 341.058594 C 450.742188 333.59375 446.761719 323.578125 438.789062 318.265625 Z M 438.789062 318.265625 " style=" stroke:none;fill-rule:nonzero;fill:rgb(96.862745%,70.196078%,43.529412%);fill-opacity:1;" />
<path d="M 402.011719 196.519531 C 398.539062 196.9375 395.140625 197.757812 391.910156 198.953125 C 391.683594 199.027344 391.511719 199.101562 391.347656 199.175781 L 389.558594 199.964844 L 389.558594 202.40625 L 390.355469 243.71875 L 393.710938 243.238281 C 394.71875 243.09375 395.625 242.992188 396.390625 242.914062 L 429.160156 239.480469 C 431.332031 239.25 433.910156 238.765625 436.664062 238.253906 C 440.957031 237.457031 445.394531 236.636719 449.542969 236.464844 L 452.648438 236.339844 L 449.8125 199.101562 C 449.660156 197.101562 449.386719 196.066406 448.808594 195.289062 L 448.292969 194.597656 L 447.488281 194.285156 C 447.070312 194.121094 446.609375 194.042969 446.082031 194.042969 C 445.335938 194.042969 444.382812 194.195312 443.09375 194.441406 C 442.15625 194.617188 441.089844 194.816406 440.058594 194.816406 C 438.671875 194.816406 437.695312 194.464844 436.894531 193.660156 C 435.984375 192.757812 435.683594 191.519531 435.398438 190.347656 C 432.84375 179.628906 430.203125 168.550781 424.773438 158.902344 C 424.164062 157.804688 423.664062 157.074219 422.921875 156.597656 L 422.742188 156.480469 L 422.546875 156.390625 C 421.910156 156.101562 421.292969 156.066406 420.882812 156.066406 C 420.339844 156.066406 419.648438 156.136719 418.710938 156.289062 C 413.457031 157.15625 408.1875 158.195312 403.054688 159.375 L 400.5 159.964844 L 400.742188 162.578125 C 401.773438 173.644531 402.359375 184.886719 402.488281 195.980469 C 402.492188 196.261719 402.296875 196.484375 402.011719 196.519531 Z M 402.011719 196.519531 " style=" stroke:none;fill-rule:nonzero;fill:rgb(96.862745%,70.196078%,43.529412%);fill-opacity:1;" />
<path d="M 418.179688 131.847656 C 419.253906 131.59375 420.59375 131.277344 421.683594 130.480469 C 425.40625 127.753906 423.875 121.875 423.371094 119.941406 L 419.550781 105.308594 L 400.398438 107.613281 L 401.679688 135.777344 Z M 418.179688 131.847656 " style=" stroke:none;fill-rule:nonzero;fill:rgb(96.862745%,70.196078%,43.529412%);fill-opacity:1;" />
<path d="M 246.980469 199.957031 L 246.320312 199.480469 C 245.433594 198.84375 244.328125 198.675781 242.035156 198.523438 C 239.417969 198.335938 237.328125 198.042969 236.25 196.191406 C 235.59375 195.074219 235.625 193.734375 235.648438 192.640625 C 235.914062 181.617188 236.1875 170.21875 233.402344 159.464844 C 233.074219 158.214844 232.78125 157.414062 232.1875 156.773438 L 232.09375 156.675781 L 231.992188 156.585938 C 231.132812 155.8125 230 155.578125 228.210938 155.410156 C 222.875 154.910156 217.519531 154.566406 212.289062 154.398438 L 209.664062 154.3125 L 209.230469 156.902344 C 207.378906 167.949219 205.078125 178.96875 202.386719 189.65625 C 202.320312 189.929688 202.066406 190.058594 201.808594 190.058594 C 201.804688 190.058594 201.804688 190.058594 201.800781 190.058594 C 199.761719 189.765625 197.675781 189.617188 195.597656 189.617188 C 194.191406 189.617188 192.765625 189.6875 191.363281 189.820312 L 191.144531 189.84375 C 190.964844 189.867188 190.804688 189.890625 190.667969 189.917969 L 188.839844 190.289062 L 188.363281 192.097656 C 188.320312 192.273438 188.273438 192.472656 188.242188 192.613281 L 178.460938 232.753906 L 181.878906 233.109375 C 182.824219 233.210938 183.683594 233.34375 184.398438 233.453125 L 217.074219 238.511719 C 219.167969 238.832031 221.730469 239.035156 224.621094 239.25 C 228.761719 239.550781 233.457031 239.894531 237.546875 240.804688 L 240.585938 241.480469 L 247.347656 204.753906 C 247.734375 202.6875 247.722656 201.625 247.308594 200.695312 Z M 246.980469 199.957031 " style=" stroke:none;fill-rule:nonzero;fill:rgb(92.941176%,42.745098%,40%);fill-opacity:1;" />
<path d="M 162.152344 280.761719 L 242.457031 290.160156 L 242.851562 287.242188 C 243.222656 284.519531 243.59375 281.796875 243.953125 279.070312 L 244.351562 276.066406 L 164.511719 266.289062 Z M 162.152344 280.761719 " style=" stroke:none;fill-rule:nonzero;fill:rgb(92.941176%,42.745098%,40%);fill-opacity:1;" />
<path d="M 140.449219 413.910156 L 220.832031 425.777344 L 221.351562 422.925781 C 222.074219 418.960938 222.792969 414.996094 223.496094 411.03125 L 224.023438 408.039062 L 143.550781 394.863281 Z M 140.449219 413.910156 " style=" stroke:none;fill-rule:nonzero;fill:rgb(92.941176%,42.745098%,40%);fill-opacity:1;" />
<path d="M 192.277344 383.519531 L 192.566406 383.515625 C 202.523438 383.296875 207.816406 371.855469 209.199219 368.351562 C 212.09375 361.039062 213.847656 351.460938 213.886719 342.734375 C 213.917969 335.019531 212.625 324.316406 206.265625 317.140625 C 203.320312 313.8125 200.15625 312.128906 196.859375 312.128906 C 196.136719 312.128906 195.40625 312.207031 194.683594 312.367188 C 185.535156 314.386719 178.121094 328.636719 175.59375 337.144531 C 172.628906 347.125 172.511719 357.375 175.257812 366.773438 C 176.65625 371.589844 178.542969 375.28125 181.027344 378.046875 C 184.140625 381.527344 188.238281 383.519531 192.277344 383.519531 Z M 192.277344 383.519531 " style=" stroke:none;fill-rule:nonzero;fill:rgb(92.941176%,42.745098%,40%);fill-opacity:1;" />
<path d="M 168.851562 51.648438 C 167.382812 51.648438 165.886719 51.726562 164.410156 51.886719 C 151.40625 53.289062 136.003906 61.503906 131.753906 80.355469 C 128.257812 95.816406 135.914062 113.53125 149.558594 121.5625 C 155.089844 124.824219 161.640625 126.542969 168.496094 126.542969 C 178.148438 126.542969 187.515625 123.082031 194.199219 117.046875 C 206 106.386719 209.835938 87.488281 203.117188 73.089844 C 196.941406 59.863281 183.8125 51.648438 168.851562 51.648438 Z M 168.851562 51.648438 " style=" stroke:none;fill-rule:nonzero;fill:rgb(97.647059%,84.705882%,53.72549%);fill-opacity:1;" />
<path d="M 91.808594 288.660156 C 90.777344 278.746094 89.683594 268.730469 88.558594 258.894531 C 88.4375 257.851562 88.378906 256.558594 88.316406 255.191406 C 88.015625 248.714844 87.605469 239.84375 80.066406 236.894531 C 79.375 236.625 78.644531 236.40625 77.898438 236.226562 L 75.839844 200.976562 C 75.738281 199.21875 75.550781 195.945312 73.023438 193.78125 C 70.28125 191.429688 66.917969 192.003906 64.460938 192.417969 C 63.664062 192.554688 62.363281 192.777344 61.871094 192.675781 C 61.734375 192.390625 61.585938 191.710938 61.507812 191.371094 C 59.082031 180.328125 56.574219 168.910156 51.035156 158.628906 C 50.503906 157.644531 49.519531 155.8125 47.640625 154.675781 C 45.175781 153.1875 42.46875 153.585938 40.855469 153.824219 C 34.503906 154.757812 28.101562 155.941406 21.828125 157.339844 C 20.105469 157.726562 18.929688 159.320312 19.074219 161.082031 C 19.976562 172.027344 20.441406 183.140625 20.460938 194.160156 C 17.757812 194.617188 15.09375 195.300781 12.503906 196.207031 C 11.597656 196.523438 9.710938 197.183594 8.511719 198.960938 C 7.40625 200.605469 7.410156 202.390625 7.414062 203.453125 L 7.46875 243.269531 C 5.078125 244.378906 2.875 246.066406 1.472656 248.714844 C -0.359375 252.1875 -0.0546875 256.074219 0.171875 258.914062 L 16.109375 460.902344 C 16.425781 464.890625 16.949219 471.570312 21.761719 475.539062 C 24.832031 478.070312 28.664062 478.675781 32.058594 478.675781 C 33.925781 478.675781 35.660156 478.492188 37.058594 478.34375 L 101.921875 471.460938 C 103.777344 471.265625 105.160156 469.65625 105.078125 467.789062 C 103.328125 428.085938 100.75 387.878906 97.421875 348.277344 C 95.753906 328.492188 93.867188 308.433594 91.808594 288.660156 Z M 90.375 348.871094 C 91.898438 366.957031 93.253906 385.175781 94.453125 403.414062 L 19.128906 409.296875 L 10.1875 295.988281 L 84.496094 286.734375 C 84.589844 287.621094 84.683594 288.507812 84.777344 289.390625 C 86.832031 309.121094 88.714844 329.132812 90.375 348.871094 Z M 95.46875 419.488281 L 20.488281 426.539062 L 19.445312 413.328125 L 94.71875 407.445312 C 94.976562 411.457031 95.226562 415.472656 95.46875 419.488281 Z M 9.191406 283.347656 L 83.191406 274.53125 C 83.488281 277.257812 83.785156 279.988281 84.074219 282.71875 L 9.871094 291.957031 Z M 14.480469 203.441406 C 14.480469 203.339844 14.480469 203.171875 14.484375 203.007812 C 14.578125 202.972656 14.695312 202.929688 14.839844 202.878906 C 17.910156 201.804688 21.109375 201.09375 24.34375 200.769531 C 26.140625 200.585938 27.511719 199.082031 27.523438 197.273438 C 27.585938 186.078125 27.199219 174.761719 26.363281 163.59375 C 31.503906 162.511719 36.710938 161.582031 41.882812 160.820312 C 43.054688 160.648438 43.765625 160.621094 43.988281 160.730469 C 44.148438 160.839844 44.425781 161.261719 44.8125 161.980469 C 49.886719 171.394531 52.285156 182.320312 54.605469 192.890625 C 54.886719 194.164062 55.3125 196.089844 56.808594 197.636719 C 59.511719 200.429688 63.199219 199.800781 65.644531 199.390625 C 66.542969 199.234375 68.042969 198.980469 68.402344 199.128906 C 68.523438 199.289062 68.691406 199.808594 68.78125 201.386719 L 70.777344 235.570312 C 66.40625 235.667969 61.75 236.445312 57.414062 237.171875 C 54.730469 237.625 52.191406 238.050781 50.144531 238.226562 L 39.207031 239.179688 C 31.914062 239.808594 24.625 240.441406 17.332031 241.078125 C 16.542969 241.148438 15.585938 241.234375 14.535156 241.371094 Z M 7.722656 252.019531 C 9.191406 249.242188 13.714844 248.488281 17.941406 248.125 C 17.945312 248.125 17.945312 248.121094 17.945312 248.121094 C 25.234375 247.484375 32.527344 246.851562 39.820312 246.222656 L 50.757812 245.269531 C 53.085938 245.066406 55.757812 244.621094 58.585938 244.144531 C 62.765625 243.445312 67.609375 242.632812 71.71875 242.632812 C 73.929688 242.632812 75.925781 242.867188 77.492188 243.480469 C 80.757812 244.757812 81.03125 250.722656 81.253906 255.515625 C 81.320312 257.007812 81.386719 258.414062 81.53125 259.699219 C 81.828125 262.289062 82.125 264.894531 82.414062 267.503906 L 8.632812 276.296875 L 7.21875 258.355469 C 7.007812 255.707031 6.914062 253.554688 7.722656 252.019531 Z M 36.3125 471.3125 C 32.476562 471.722656 28.539062 471.960938 26.257812 470.082031 C 23.957031 468.183594 23.464844 464.230469 23.15625 460.347656 L 21.046875 433.585938 L 95.882812 426.546875 C 96.625 439.316406 97.292969 452.074219 97.867188 464.78125 Z M 36.3125 471.3125 " style=" stroke:none;fill-rule:nonzero;fill:rgb(0%,0%,0%);fill-opacity:1;" />
<path d="M 59.226562 319.300781 C 54.417969 315.972656 49.894531 315.308594 45.78125 317.339844 C 36.984375 321.679688 33.003906 337.734375 32.558594 346.835938 C 32.042969 357.421875 34.417969 367.601562 39.429688 376.269531 C 42.015625 380.75 44.828125 383.992188 48.023438 386.179688 C 51.070312 388.269531 54.476562 389.363281 57.757812 389.363281 C 58.992188 389.363281 60.214844 389.207031 61.390625 388.890625 C 68.300781 387.035156 73.277344 379.722656 74.703125 369.332031 C 76.746094 354.425781 73.296875 329.046875 59.226562 319.300781 Z M 70.699219 368.785156 C 70.25 372.050781 68.175781 382.886719 60.34375 384.992188 C 57.234375 385.824219 53.480469 385.023438 50.308594 382.847656 C 47.621094 381.007812 45.207031 378.195312 42.925781 374.25 C 38.304688 366.253906 36.113281 356.84375 36.59375 347.03125 C 37.007812 338.496094 40.78125 324.308594 47.566406 320.964844 C 48.539062 320.484375 49.554688 320.242188 50.617188 320.242188 C 52.542969 320.242188 54.628906 321.035156 56.925781 322.625 C 69.453125 331.296875 72.550781 355.296875 70.699219 368.785156 Z M 70.699219 368.785156 " style=" stroke:none;fill-rule:nonzero;fill:rgb(0%,0%,0%);fill-opacity:1;" />
<path d="M 194.457031 311.347656 C 184.878906 313.46875 177.191406 328.117188 174.59375 336.847656 C 171.570312 347.011719 171.457031 357.460938 174.261719 367.074219 C 175.710938 372.039062 177.667969 375.859375 180.25 378.746094 C 183.566406 382.453125 187.9375 384.5625 192.289062 384.5625 C 192.386719 384.5625 192.488281 384.5625 192.585938 384.558594 C 199.738281 384.398438 206.3125 378.484375 210.167969 368.730469 C 215.703125 354.742188 218.394531 329.269531 207.046875 316.453125 C 203.171875 312.074219 198.9375 310.359375 194.457031 311.347656 Z M 206.414062 367.246094 C 205.199219 370.3125 200.609375 380.339844 192.496094 380.519531 C 189.238281 380.601562 185.824219 378.921875 183.261719 376.050781 C 181.089844 373.625 179.414062 370.316406 178.136719 365.941406 C 175.554688 357.078125 175.667969 347.417969 178.464844 338 C 180.902344 329.808594 187.945312 316.929688 195.328125 315.292969 C 198.308594 314.636719 201.152344 315.890625 204.023438 319.132812 C 214.125 330.542969 211.421875 354.585938 206.414062 367.246094 Z M 206.414062 367.246094 " style=" stroke:none;fill-rule:nonzero;fill:rgb(0%,0%,0%);fill-opacity:1;" />
<path d="M 303.90625 331.171875 C 294.332031 333.292969 286.640625 347.9375 284.046875 356.667969 C 281.023438 366.832031 280.90625 377.285156 283.710938 386.894531 C 285.160156 391.859375 287.117188 395.679688 289.699219 398.566406 C 292.96875 402.226562 297.453125 404.382812 301.753906 404.382812 C 301.847656 404.382812 301.941406 404.382812 302.035156 404.378906 C 309.1875 404.222656 315.761719 398.304688 319.621094 388.550781 C 325.15625 374.5625 327.847656 349.09375 316.5 336.273438 C 312.621094 331.898438 308.386719 330.183594 303.90625 331.171875 Z M 315.863281 387.066406 C 314.648438 390.132812 310.058594 400.164062 301.945312 400.34375 C 298.765625 400.394531 295.277344 398.742188 292.710938 395.875 C 290.539062 393.445312 288.863281 390.136719 287.589844 385.765625 C 285.003906 376.898438 285.117188 367.238281 287.917969 357.820312 C 290.351562 349.632812 297.394531 336.75 304.78125 335.117188 C 307.757812 334.449219 310.601562 335.710938 313.472656 338.953125 C 323.574219 350.363281 320.875 374.40625 315.863281 387.066406 Z M 315.863281 387.066406 " style=" stroke:none;fill-rule:nonzero;fill:rgb(0%,0%,0%);fill-opacity:1;" />
<path d="M 439.359375 317.394531 C 434.492188 314.152344 429.957031 313.574219 425.882812 315.675781 C 417.164062 320.167969 413.46875 336.292969 413.1875 345.398438 C 412.859375 355.996094 415.417969 366.132812 420.578125 374.707031 C 423.25 379.140625 426.117188 382.332031 429.347656 384.464844 C 432.351562 386.441406 435.671875 387.476562 438.871094 387.472656 C 440.199219 387.472656 441.507812 387.296875 442.761719 386.9375 C 449.636719 384.957031 454.480469 377.558594 455.722656 367.144531 C 457.503906 352.203125 453.601562 326.890625 439.359375 317.394531 Z M 451.710938 366.664062 C 451.320312 369.941406 449.441406 380.808594 441.644531 383.054688 C 438.550781 383.945312 434.785156 383.210938 431.574219 381.089844 C 428.855469 379.296875 426.390625 376.527344 424.039062 372.625 C 419.277344 364.714844 416.921875 355.34375 417.222656 345.523438 C 417.488281 336.984375 421.007812 322.730469 427.730469 319.265625 C 428.734375 318.75 429.785156 318.488281 430.894531 318.488281 C 432.789062 318.488281 434.847656 319.242188 437.117188 320.757812 C 449.796875 329.207031 453.320312 353.148438 451.710938 366.664062 Z M 451.710938 366.664062 " style=" stroke:none;fill-rule:nonzero;fill:rgb(0%,0%,0%);fill-opacity:1;" />
<path d="M 483.886719 2.902344 C 483.566406 1.164062 482.039062 -0.0976562 480.246094 0.0078125 L 427.402344 2.4375 C 423.1875 2.628906 412.761719 3.066406 398.0625 3.6875 C 356.382812 5.441406 278.804688 8.703125 212.175781 11.894531 C 175.140625 13.667969 146.078125 15.203125 125.792969 16.449219 C 114.164062 17.167969 105.191406 17.804688 99.128906 18.34375 C 89.386719 19.214844 86.101562 19.507812 86.101562 23.300781 C 86.101562 23.382812 86.105469 23.464844 86.113281 23.546875 L 104.808594 292.34375 C 104.875 293.292969 105.320312 294.171875 106.042969 294.789062 C 106.683594 295.335938 107.5 295.632812 108.335938 295.632812 C 108.441406 295.632812 108.546875 295.628906 108.652344 295.621094 L 156.304688 291.347656 L 131.464844 443.722656 C 130.820312 447.675781 129.746094 454.285156 133.472656 459.28125 C 137.15625 464.226562 143.734375 465.117188 147.660156 465.648438 L 212.296875 474.402344 C 212.457031 474.425781 212.617188 474.433594 212.773438 474.433594 C 214.4375 474.433594 215.902344 473.261719 216.238281 471.589844 C 223.980469 432.640625 231.050781 392.972656 237.25 353.6875 C 240.351562 334.023438 243.289062 314.089844 245.988281 294.449219 C 246.332031 291.957031 246.664062 289.441406 247.003906 286.933594 L 270.152344 284.210938 L 240.917969 463.546875 C 240.273438 467.496094 239.195312 474.109375 242.921875 479.101562 C 246.609375 484.046875 253.183594 484.9375 257.113281 485.472656 L 321.75 494.226562 C 321.910156 494.246094 322.070312 494.257812 322.226562 494.257812 C 323.886719 494.257812 325.355469 493.085938 325.6875 491.414062 C 333.433594 452.457031 340.503906 412.789062 346.699219 373.511719 C 349.800781 353.84375 352.742188 333.914062 355.441406 314.269531 C 356.800781 304.371094 358.125 294.382812 359.367188 284.589844 C 359.503906 283.546875 359.753906 282.273438 360.015625 280.929688 C 360.167969 280.160156 360.324219 279.351562 360.476562 278.523438 C 360.558594 278.519531 360.636719 278.519531 360.71875 278.507812 L 380.976562 275.957031 L 398.769531 459.742188 C 399.15625 463.726562 399.804688 470.394531 404.679688 474.273438 C 407.648438 476.632812 411.273438 477.234375 414.542969 477.234375 C 416.597656 477.234375 418.511719 476.996094 420.027344 476.808594 L 484.753906 468.773438 C 486.609375 468.542969 487.960938 466.910156 487.847656 465.046875 C 485.390625 425.394531 482.101562 385.238281 478.0625 345.691406 C 476.046875 325.917969 473.804688 305.894531 471.394531 286.179688 C 470.421875 278.222656 469.402344 270.160156 468.355469 262.144531 L 508.886719 257.300781 C 510.722656 257.082031 512.078125 255.484375 512 253.640625 C 508.453125 169.804688 498.996094 85.445312 483.886719 2.902344 Z M 233.660156 197.710938 C 235.621094 201.066406 239.355469 201.335938 241.824219 201.515625 C 242.734375 201.582031 244.253906 201.691406 244.566406 201.917969 C 244.648438 202.101562 244.6875 202.648438 244.398438 204.203125 L 238.203125 237.878906 C 233.933594 236.929688 229.222656 236.582031 224.84375 236.253906 C 222.125 236.054688 219.558594 235.859375 217.527344 235.546875 L 208.121094 234.089844 C 200.40625 232.894531 192.691406 231.699219 184.976562 230.507812 C 184.195312 230.386719 183.246094 230.242188 182.191406 230.125 L 191.167969 193.273438 C 191.191406 193.175781 191.230469 193.011719 191.273438 192.851562 C 191.375 192.839844 191.496094 192.824219 191.648438 192.8125 C 194.890625 192.5 198.164062 192.570312 201.382812 193.023438 C 203.171875 193.269531 204.863281 192.136719 205.304688 190.386719 C 208.03125 179.535156 210.34375 168.453125 212.195312 157.398438 C 217.441406 157.570312 222.722656 157.90625 227.929688 158.398438 C 229.109375 158.511719 229.804688 158.652344 229.996094 158.8125 C 230.125 158.957031 230.292969 159.429688 230.5 160.222656 C 233.183594 170.566406 232.914062 181.753906 232.652344 192.574219 C 232.621094 193.878906 232.574219 195.851562 233.660156 197.710938 Z M 167.007812 269.621094 L 240.980469 278.671875 C 240.621094 281.402344 240.25 284.113281 239.882812 286.835938 L 165.617188 278.148438 Z M 178.75 237.011719 C 180.394531 237.011719 182.175781 237.226562 183.894531 237.492188 C 183.894531 237.492188 183.894531 237.492188 183.898438 237.492188 C 191.609375 238.683594 199.324219 239.882812 207.039062 241.078125 L 216.445312 242.535156 C 218.753906 242.890625 221.457031 243.09375 224.320312 243.304688 C 230.816406 243.789062 238.902344 244.386719 242.839844 247.15625 C 245.707031 249.175781 244.554688 255.035156 243.628906 259.746094 C 243.339844 261.210938 243.066406 262.59375 242.902344 263.875 C 242.574219 266.460938 242.230469 269.066406 241.894531 271.664062 L 168.148438 262.640625 L 171.042969 244.882812 C 171.472656 242.257812 171.890625 240.144531 173.042969 238.847656 C 174.277344 237.457031 176.375 237.011719 178.75 237.011719 Z M 218.402344 422.386719 L 143.898438 411.386719 L 146.03125 398.304688 L 220.542969 410.511719 C 219.835938 414.472656 219.121094 418.429688 218.402344 422.386719 Z M 209.949219 466.953125 L 148.609375 458.640625 C 144.78125 458.125 140.902344 457.417969 139.136719 455.050781 C 137.351562 452.660156 137.816406 448.703125 138.441406 444.859375 L 142.761719 418.367188 L 217.125 429.34375 C 214.804688 441.925781 212.414062 454.476562 209.949219 466.953125 Z M 230.265625 352.585938 C 227.433594 370.523438 224.417969 388.539062 221.242188 406.53125 L 146.679688 394.320312 L 164.96875 282.136719 L 239.34375 290.839844 C 239.222656 291.71875 239.105469 292.609375 238.984375 293.484375 C 236.292969 313.082031 233.359375 332.96875 230.265625 352.585938 Z M 343.109375 217.53125 C 345.070312 220.886719 348.804688 221.160156 351.277344 221.335938 C 352.183594 221.402344 353.707031 221.511719 354.019531 221.738281 C 354.101562 221.925781 354.136719 222.472656 353.851562 224.023438 L 347.652344 257.699219 C 343.386719 256.753906 338.675781 256.402344 334.292969 256.078125 C 331.574219 255.875 329.011719 255.683594 326.976562 255.371094 L 294.429688 250.328125 C 293.648438 250.207031 292.695312 250.0625 291.644531 249.945312 L 300.617188 213.097656 C 300.644531 213 300.683594 212.832031 300.726562 212.675781 C 300.824219 212.664062 300.949219 212.648438 301.101562 212.632812 C 304.339844 212.320312 307.613281 212.394531 310.835938 212.847656 C 312.625 213.101562 314.3125 211.960938 314.753906 210.207031 C 317.480469 199.359375 319.796875 188.277344 321.644531 177.222656 C 326.898438 177.394531 332.179688 177.730469 337.382812 178.222656 C 338.558594 178.335938 339.257812 178.476562 339.445312 178.632812 C 339.574219 178.777344 339.742188 179.253906 339.949219 180.046875 C 342.632812 190.390625 342.363281 201.578125 342.105469 212.398438 C 342.070312 213.703125 342.023438 215.671875 343.109375 217.53125 Z M 276.460938 289.445312 L 350.433594 298.496094 C 350.074219 301.214844 349.707031 303.933594 349.339844 306.65625 L 275.070312 297.96875 Z M 288.199219 256.832031 C 289.847656 256.832031 291.628906 257.046875 293.347656 257.3125 L 325.894531 262.355469 C 328.207031 262.710938 330.90625 262.914062 333.769531 263.125 C 340.265625 263.605469 348.351562 264.207031 352.289062 266.976562 C 355.15625 268.996094 354.003906 274.855469 353.078125 279.566406 C 352.789062 281.03125 352.519531 282.414062 352.355469 283.695312 C 352.027344 286.28125 351.691406 288.878906 351.351562 291.484375 L 277.597656 282.460938 L 277.671875 282.003906 C 278.09375 281.339844 278.308594 280.542969 278.210938 279.703125 C 278.195312 279.554688 278.152344 279.417969 278.117188 279.273438 L 280.492188 264.703125 C 280.921875 262.078125 281.339844 259.964844 282.492188 258.667969 C 283.726562 257.28125 285.824219 256.832031 288.199219 256.832031 Z M 327.851562 442.207031 L 253.347656 431.207031 L 255.480469 418.128906 L 329.992188 430.335938 C 329.289062 434.292969 328.574219 438.253906 327.851562 442.207031 Z M 319.398438 486.773438 L 258.058594 478.464844 C 254.234375 477.945312 250.351562 477.242188 248.589844 474.875 C 246.804688 472.484375 247.265625 468.527344 247.894531 464.679688 L 252.210938 438.1875 L 326.574219 449.167969 C 324.253906 461.746094 321.867188 474.296875 319.398438 486.773438 Z M 339.714844 372.410156 C 336.886719 390.34375 333.867188 408.359375 330.691406 426.355469 L 256.132812 414.140625 L 274.417969 301.960938 L 348.796875 310.660156 C 348.675781 311.542969 348.554688 312.425781 348.433594 313.308594 C 345.742188 332.902344 342.808594 352.789062 339.714844 372.410156 Z M 386.277344 257.386719 C 386.019531 254.738281 385.886719 252.589844 386.671875 251.039062 C 388.089844 248.234375 392.597656 247.402344 396.820312 246.960938 L 429.574219 243.523438 C 431.898438 243.28125 434.5625 242.785156 437.386719 242.261719 C 441.730469 241.453125 446.800781 240.507812 451.015625 240.507812 C 453.015625 240.507812 454.824219 240.722656 456.273438 241.257812 C 459.5625 242.476562 459.945312 248.4375 460.25 253.226562 C 460.347656 254.714844 460.433594 256.125 460.605469 257.402344 C 460.945312 259.992188 461.289062 262.589844 461.625 265.191406 L 388.011719 275.296875 Z M 392.5625 202.351562 C 392.558594 202.25 392.554688 202.078125 392.558594 201.917969 C 392.648438 201.878906 392.765625 201.832031 392.910156 201.777344 C 395.960938 200.652344 399.144531 199.882812 402.375 199.5 C 404.167969 199.285156 405.511719 197.753906 405.492188 195.949219 C 405.359375 184.761719 404.765625 173.457031 403.734375 162.296875 C 408.855469 161.121094 414.046875 160.097656 419.203125 159.246094 C 420.371094 159.054688 421.082031 159.011719 421.304688 159.121094 C 421.464844 159.226562 421.75 159.640625 422.152344 160.355469 C 427.386719 169.671875 429.980469 180.554688 432.492188 191.085938 C 432.796875 192.355469 433.253906 194.273438 434.777344 195.792969 C 437.527344 198.535156 441.210938 197.84375 443.644531 197.386719 C 444.539062 197.21875 446.042969 196.941406 446.398438 197.078125 C 446.523438 197.234375 446.699219 197.753906 446.820312 199.328125 L 449.421875 233.46875 C 445.054688 233.644531 440.410156 234.507812 436.09375 235.3125 C 433.414062 235.808594 430.882812 236.28125 428.839844 236.496094 L 396.082031 239.929688 C 395.292969 240.011719 394.339844 240.113281 393.292969 240.269531 Z M 388.691406 282.335938 L 462.523438 272.203125 C 462.871094 274.929688 463.214844 277.65625 463.550781 280.375 L 389.523438 290.933594 Z M 477.378906 416.921875 L 402.535156 425.304688 L 401.257812 412.113281 L 476.414062 404.894531 C 476.742188 408.902344 477.0625 412.910156 477.378906 416.921875 Z M 419.152344 469.792969 C 415.324219 470.269531 411.390625 470.578125 409.078125 468.742188 C 406.742188 466.882812 406.179688 462.9375 405.804688 459.058594 L 403.214844 432.339844 L 477.917969 423.972656 C 478.886719 436.730469 479.78125 449.472656 480.582031 462.167969 Z M 476.074219 400.867188 L 400.867188 408.089844 L 389.914062 294.957031 L 464.046875 284.382812 C 464.15625 285.265625 464.265625 286.15625 464.375 287.035156 C 466.777344 306.707031 469.015625 326.679688 471.03125 346.40625 C 472.871094 364.46875 474.554688 382.65625 476.074219 400.867188 Z M 467.472656 255.125 C 467.410156 254.390625 467.355469 253.601562 467.304688 252.773438 C 466.890625 246.304688 466.320312 237.445312 458.730469 234.628906 C 458.03125 234.371094 457.300781 234.167969 456.550781 234 L 453.867188 198.792969 C 453.734375 197.035156 453.484375 193.765625 450.925781 191.648438 C 448.140625 189.347656 444.789062 189.976562 442.339844 190.4375 C 441.542969 190.589844 440.246094 190.828125 439.75 190.742188 C 439.609375 190.460938 439.449219 189.785156 439.367188 189.445312 C 436.742188 178.441406 434.03125 167.066406 428.3125 156.894531 C 427.765625 155.917969 426.746094 154.101562 424.847656 153.003906 C 422.355469 151.558594 419.660156 152.003906 418.050781 152.269531 C 411.71875 153.316406 405.335938 154.613281 399.085938 156.125 C 397.371094 156.539062 396.222656 158.15625 396.402344 159.914062 C 397.496094 170.851562 398.160156 181.953125 398.375 192.960938 C 395.679688 193.464844 393.027344 194.199219 390.453125 195.148438 C 389.554688 195.480469 387.679688 196.175781 386.515625 197.972656 C 385.4375 199.636719 385.472656 201.417969 385.492188 202.484375 L 386.257812 242.296875 C 383.886719 243.445312 381.714844 245.171875 380.359375 247.847656 C 378.589844 251.351562 378.964844 255.230469 379.238281 258.066406 L 380.289062 268.914062 L 361.167969 271.320312 C 361.074219 267.4375 359.941406 263.71875 356.355469 261.195312 C 355.746094 260.765625 355.09375 260.382812 354.410156 260.027344 L 360.800781 225.300781 C 361.121094 223.570312 361.714844 220.347656 359.777344 217.644531 C 357.675781 214.710938 354.269531 214.464844 351.785156 214.28125 C 350.980469 214.222656 349.664062 214.128906 349.207031 213.917969 C 349.144531 213.605469 349.160156 212.914062 349.167969 212.5625 C 349.441406 201.257812 349.722656 189.566406 346.789062 178.265625 C 346.507812 177.183594 345.984375 175.164062 344.429688 173.621094 C 342.390625 171.589844 339.5625 171.324219 338.046875 171.179688 C 331.65625 170.574219 325.15625 170.199219 318.726562 170.066406 C 317 170.023438 315.441406 171.300781 315.164062 173.042969 C 313.429688 183.898438 311.238281 194.800781 308.632812 205.5 C 305.898438 205.296875 303.148438 205.328125 300.421875 205.59375 C 299.464844 205.683594 297.476562 205.878906 295.886719 207.320312 C 294.421875 208.652344 294 210.382812 293.75 211.417969 L 284.324219 250.105469 C 281.742188 250.613281 279.199219 251.726562 277.207031 253.96875 C 274.601562 256.902344 273.972656 260.753906 273.515625 263.5625 L 271.332031 276.949219 L 247.976562 279.695312 C 248.636719 274.707031 249.285156 269.71875 249.914062 264.761719 C 250.046875 263.71875 250.296875 262.449219 250.5625 261.101562 C 251.8125 254.742188 253.523438 246.03125 246.90625 241.371094 C 246.296875 240.941406 245.640625 240.558594 244.960938 240.203125 L 251.351562 205.476562 C 251.667969 203.746094 252.265625 200.523438 250.328125 197.824219 C 248.222656 194.886719 244.820312 194.636719 242.335938 194.460938 C 241.527344 194.402344 240.210938 194.304688 239.757812 194.09375 C 239.691406 193.785156 239.710938 193.089844 239.71875 192.738281 C 239.988281 181.433594 240.269531 169.742188 237.339844 158.441406 C 237.054688 157.359375 236.53125 155.339844 234.980469 153.800781 C 232.941406 151.769531 230.21875 151.511719 228.59375 151.355469 C 222.199219 150.75 215.699219 150.375 209.273438 150.242188 C 207.550781 150.199219 205.988281 151.476562 205.710938 153.21875 C 203.980469 164.074219 201.785156 174.976562 199.183594 185.675781 C 196.453125 185.476562 193.699219 185.507812 190.96875 185.769531 C 190.011719 185.859375 188.019531 186.054688 186.433594 187.496094 C 184.972656 188.828125 184.550781 190.558594 184.296875 191.59375 L 174.875 230.285156 C 172.289062 230.789062 169.746094 231.902344 167.753906 234.144531 C 165.144531 237.082031 164.519531 240.929688 164.0625 243.738281 L 157.445312 284.339844 C 157.085938 284.253906 156.710938 284.210938 156.324219 284.242188 L 111.609375 288.25 L 93.371094 26.015625 C 119.261719 22.488281 327.894531 13.710938 398.359375 10.75 C 413.074219 10.128906 423.511719 9.691406 427.726562 9.496094 L 477.484375 7.210938 C 492.019531 87.386719 501.203125 169.265625 504.792969 250.667969 Z M 467.472656 255.125 " style=" stroke:none;fill-rule:nonzero;fill:rgb(0%,0%,0%);fill-opacity:1;" />
<path d="M 204.058594 72.65625 C 197.019531 57.570312 181.414062 49 164.300781 50.855469 C 147.519531 52.664062 134.34375 64.152344 130.734375 80.125 C 127.089844 96.269531 134.785156 114.074219 149.03125 122.460938 C 154.976562 125.957031 161.78125 127.664062 168.59375 127.664062 C 178.15625 127.664062 187.71875 124.300781 194.894531 117.816406 C 207.21875 106.679688 211.074219 87.6875 204.058594 72.65625 Z M 192.1875 114.820312 C 181.355469 124.609375 163.679688 126.398438 151.078125 118.976562 C 138.511719 111.582031 131.460938 95.261719 134.675781 81.015625 C 138.585938 63.707031 152.765625 56.160156 164.734375 54.871094 C 180.105469 53.214844 194.101562 60.867188 200.398438 74.363281 C 206.582031 87.609375 203.050781 105.003906 192.1875 114.820312 Z M 192.1875 114.820312 " style=" stroke:none;fill-rule:nonzero;fill:rgb(0%,0%,0%);fill-opacity:1;" />
<path d="M 155.679688 78.453125 C 155.480469 77.355469 154.4375 76.628906 153.332031 76.828125 C 152.234375 77.027344 151.507812 78.078125 151.707031 79.175781 L 153.628906 89.765625 C 153.808594 90.742188 154.65625 91.425781 155.613281 91.425781 C 155.734375 91.425781 155.855469 91.414062 155.980469 91.390625 C 157.074219 91.191406 157.804688 90.140625 157.605469 89.042969 Z M 155.679688 78.453125 " style=" stroke:none;fill-rule:nonzero;fill:rgb(0%,0%,0%);fill-opacity:1;" />
<path d="M 178.679688 85.496094 C 178.882812 86.445312 179.71875 87.09375 180.648438 87.09375 C 180.789062 87.09375 180.933594 87.078125 181.074219 87.046875 C 182.167969 86.8125 182.859375 85.742188 182.625 84.652344 L 179.738281 71.171875 C 179.503906 70.082031 178.4375 69.390625 177.339844 69.621094 C 176.25 69.851562 175.554688 70.925781 175.789062 72.015625 Z M 178.679688 85.496094 " style=" stroke:none;fill-rule:nonzero;fill:rgb(0%,0%,0%);fill-opacity:1;" />
<path d="M 181.304688 91.507812 C 180.195312 91.628906 179.398438 92.628906 179.523438 93.738281 C 179.960938 97.640625 177.597656 101.820312 174.03125 103.457031 C 170.460938 105.097656 165.753906 104.167969 163.078125 101.292969 C 162.316406 100.476562 161.039062 100.433594 160.222656 101.191406 C 159.40625 101.953125 159.363281 103.230469 160.121094 104.046875 C 162.695312 106.808594 166.449219 108.308594 170.199219 108.308594 C 172.09375 108.308594 173.984375 107.925781 175.71875 107.128906 C 180.882812 104.753906 184.171875 98.933594 183.535156 93.289062 C 183.414062 92.179688 182.398438 91.371094 181.304688 91.507812 Z M 181.304688 91.507812 " style=" stroke:none;fill-rule:nonzero;fill:rgb(0%,0%,0%);fill-opacity:1;" />
<path d="M 329.515625 74.183594 C 321.894531 71.152344 312.992188 71.476562 305.554688 74.921875 C 304.714844 62.945312 300.015625 52.539062 292.417969 46.027344 C 282.394531 37.4375 267.476562 36.765625 258.457031 44.492188 C 253.308594 48.898438 250.054688 55.859375 249.285156 64.089844 C 248.699219 70.382812 249.53125 76.59375 250.503906 82.636719 C 244.058594 82.339844 236.570312 82.386719 230.277344 86.003906 C 226.222656 88.335938 222.976562 92.808594 222.007812 97.402344 C 221.230469 101.097656 221.90625 104.535156 223.96875 107.34375 C 227.320312 111.90625 233.339844 113.84375 239.179688 113.84375 C 241.808594 113.84375 244.402344 113.449219 246.695312 112.726562 C 263.839844 107.324219 280.933594 105.171875 299.03125 102.890625 C 301.328125 102.601562 303.628906 102.3125 305.9375 102.015625 L 345.78125 96.882812 C 346.359375 96.808594 346.875 96.484375 347.199219 96.003906 C 347.523438 95.519531 347.625 94.917969 347.472656 94.355469 C 345.050781 85.359375 338.171875 77.628906 329.515625 74.183594 Z M 305.421875 98.007812 C 303.117188 98.304688 300.820312 98.59375 298.53125 98.882812 C 280.246094 101.183594 262.972656 103.359375 245.484375 108.875 C 239.347656 110.808594 230.839844 109.871094 227.226562 104.953125 C 225.503906 102.609375 225.589844 100.007812 225.960938 98.238281 C 226.707031 94.714844 229.1875 91.289062 232.292969 89.503906 C 236.433594 87.121094 241.460938 86.566406 246.269531 86.566406 C 248.527344 86.566406 250.738281 86.6875 252.792969 86.804688 C 253.40625 86.839844 254 86.59375 254.40625 86.136719 C 254.816406 85.679688 255 85.0625 254.898438 84.457031 C 253.8125 77.890625 252.691406 71.101562 253.308594 64.464844 C 253.976562 57.285156 256.738281 51.28125 261.082031 47.558594 C 268.507812 41.203125 281.382812 41.890625 289.789062 49.09375 C 297.1875 55.4375 301.511719 66.0625 301.648438 78.246094 C 301.65625 78.972656 302.054688 79.636719 302.691406 79.992188 C 303.328125 80.339844 304.105469 80.324219 304.726562 79.945312 C 311.601562 75.722656 320.527344 74.957031 328.023438 77.941406 C 334.796875 80.636719 340.3125 86.359375 342.859375 93.1875 Z M 305.421875 98.007812 " style=" stroke:none;fill-rule:nonzero;fill:rgb(0%,0%,0%);fill-opacity:1;" />
<path d="M 444.800781 80.9375 C 437.027344 66.515625 427.351562 48.566406 414.722656 38.929688 C 411.246094 36.273438 407.734375 35.421875 404.289062 36.398438 C 395.046875 39.019531 389.152344 54.382812 385.25 64.546875 C 384.464844 66.59375 383.785156 68.359375 383.207031 69.6875 C 378.855469 79.628906 374.878906 89.878906 371.382812 100.148438 C 370.679688 102.222656 369.210938 106.539062 371.535156 109.851562 C 373.304688 112.375 376.195312 113.03125 379.0625 113.03125 C 380.144531 113.03125 381.21875 112.9375 382.230469 112.816406 L 399.5 110.742188 L 400.582031 134.636719 C 400.609375 135.234375 400.90625 135.792969 401.386719 136.15625 C 401.738281 136.421875 402.167969 136.5625 402.601562 136.5625 C 402.757812 136.5625 402.914062 136.546875 403.066406 136.507812 L 418.421875 132.859375 C 419.585938 132.582031 421.035156 132.238281 422.289062 131.324219 C 426.59375 128.183594 424.925781 121.785156 424.378906 119.679688 L 421.359375 108.113281 L 433.117188 106.699219 C 439.085938 105.984375 446.265625 104.390625 448.820312 98.414062 C 450.929688 93.464844 448.703125 88.152344 446.246094 83.609375 Z M 420.46875 120.703125 C 421.480469 124.578125 421.292969 127.054688 419.90625 128.0625 C 419.3125 128.496094 418.382812 128.714844 417.488281 128.929688 L 404.507812 132.015625 L 403.519531 110.257812 L 417.3125 108.601562 Z M 445.101562 96.828125 C 443.375 100.882812 437.832031 102.066406 432.636719 102.691406 L 381.75 108.808594 C 379.171875 109.117188 376.050781 109.253906 374.84375 107.535156 C 373.832031 106.089844 374.460938 103.648438 375.210938 101.449219 C 378.667969 91.285156 382.605469 81.140625 386.90625 71.304688 C 387.523438 69.894531 388.21875 68.085938 389.023438 65.992188 C 392.414062 57.148438 398.097656 42.351562 405.394531 40.285156 C 407.578125 39.664062 409.828125 40.273438 412.273438 42.140625 C 424.210938 51.25 433.65625 68.773438 441.246094 82.851562 L 442.695312 85.535156 C 444.691406 89.226562 446.542969 93.460938 445.101562 96.828125 Z M 445.101562 96.828125 " style=" stroke:none;fill-rule:nonzero;fill:rgb(0%,0%,0%);fill-opacity:1;" />
<path d="M 131.179688 53.347656 C 131.363281 52.246094 130.625 51.207031 129.523438 51.019531 L 117.503906 48.988281 C 116.398438 48.800781 115.363281 49.542969 115.175781 50.640625 C 114.992188 51.742188 115.730469 52.785156 116.832031 52.96875 L 128.851562 55.003906 C 128.964844 55.023438 129.078125 55.03125 129.1875 55.03125 C 130.15625 55.03125 131.011719 54.332031 131.179688 53.347656 Z M 131.179688 53.347656 " style=" stroke:none;fill-rule:nonzero;fill:rgb(0%,0%,0%);fill-opacity:1;" />
<path d="M 122.449219 74.996094 C 122.289062 73.890625 121.265625 73.125 120.164062 73.285156 L 110.523438 74.671875 C 109.421875 74.828125 108.652344 75.851562 108.8125 76.957031 C 108.957031 77.964844 109.820312 78.6875 110.808594 78.6875 C 110.90625 78.6875 111.003906 78.683594 111.097656 78.667969 L 120.738281 77.28125 C 121.839844 77.121094 122.605469 76.097656 122.449219 74.996094 Z M 122.449219 74.996094 " style=" stroke:none;fill-rule:nonzero;fill:rgb(0%,0%,0%);fill-opacity:1;" />
<path d="M 123.019531 106.15625 L 116.761719 111.453125 C 115.910156 112.175781 115.804688 113.449219 116.523438 114.300781 C 116.921875 114.773438 117.492188 115.015625 118.066406 115.015625 C 118.527344 115.015625 118.988281 114.859375 119.371094 114.539062 L 125.628906 109.242188 C 126.480469 108.519531 126.585938 107.246094 125.867188 106.394531 C 125.144531 105.542969 123.875 105.4375 123.019531 106.15625 Z M 123.019531 106.15625 " style=" stroke:none;fill-rule:nonzero;fill:rgb(0%,0%,0%);fill-opacity:1;" />
<path d="M 142.113281 124.976562 C 141.0625 124.601562 139.90625 125.15625 139.535156 126.207031 L 135.265625 138.265625 C 134.890625 139.316406 135.441406 140.472656 136.492188 140.84375 C 136.714844 140.921875 136.945312 140.960938 137.167969 140.960938 C 138 140.960938 138.777344 140.441406 139.070312 139.613281 L 143.339844 127.554688 C 143.714844 126.503906 143.164062 125.351562 142.113281 124.976562 Z M 142.113281 124.976562 " style=" stroke:none;fill-rule:nonzero;fill:rgb(0%,0%,0%);fill-opacity:1;" />
<path d="M 170.296875 138.042969 C 169.996094 136.96875 168.886719 136.34375 167.808594 136.640625 C 166.734375 136.941406 166.105469 138.054688 166.40625 139.128906 L 169.230469 149.257812 C 169.476562 150.148438 170.289062 150.734375 171.175781 150.734375 C 171.351562 150.734375 171.535156 150.710938 171.71875 150.660156 C 172.792969 150.359375 173.417969 149.246094 173.121094 148.171875 Z M 170.296875 138.042969 " style=" stroke:none;fill-rule:nonzero;fill:rgb(0%,0%,0%);fill-opacity:1;" />
<path d="M 212.390625 136.101562 C 207.914062 135.070312 203.789062 132.351562 201.082031 128.640625 C 200.421875 127.738281 199.160156 127.542969 198.257812 128.199219 C 197.355469 128.855469 197.160156 130.121094 197.816406 131.019531 C 201.089844 135.503906 206.070312 138.789062 211.480469 140.039062 C 211.636719 140.074219 211.789062 140.089844 211.9375 140.089844 C 212.855469 140.089844 213.6875 139.457031 213.90625 138.523438 C 214.15625 137.4375 213.476562 136.351562 212.390625 136.101562 Z M 212.390625 136.101562 " style=" stroke:none;fill-rule:nonzero;fill:rgb(0%,0%,0%);fill-opacity:1;" />
<path d="M 150.40625 44.742188 C 150.683594 45.597656 151.476562 46.144531 152.332031 46.144531 C 152.535156 46.144531 152.742188 46.113281 152.949219 46.046875 C 154.011719 45.703125 154.59375 44.566406 154.253906 43.503906 L 150.523438 31.910156 C 150.183594 30.851562 149.046875 30.265625 147.984375 30.605469 C 146.921875 30.949219 146.335938 32.085938 146.679688 33.148438 Z M 150.40625 44.742188 " style=" stroke:none;fill-rule:nonzero;fill:rgb(0%,0%,0%);fill-opacity:1;" />
<path d="M 182.730469 43.308594 C 183.082031 43.546875 183.476562 43.664062 183.875 43.664062 C 184.515625 43.664062 185.148438 43.355469 185.539062 42.789062 L 191.816406 33.652344 C 192.449219 32.730469 192.214844 31.472656 191.296875 30.84375 C 190.375 30.210938 189.117188 30.445312 188.488281 31.363281 L 182.210938 40.5 C 181.578125 41.417969 181.8125 42.675781 182.730469 43.308594 Z M 182.730469 43.308594 " style=" stroke:none;fill-rule:nonzero;fill:rgb(0%,0%,0%);fill-opacity:1;" />
<path d="M 202.179688 54.636719 C 202.578125 54.636719 202.980469 54.519531 203.335938 54.273438 L 212.96875 47.539062 C 213.882812 46.902344 214.105469 45.644531 213.46875 44.726562 C 212.832031 43.8125 211.570312 43.589844 210.65625 44.226562 L 201.019531 50.960938 C 200.105469 51.597656 199.882812 52.859375 200.519531 53.773438 C 200.914062 54.335938 201.542969 54.636719 202.179688 54.636719 Z M 202.179688 54.636719 " style=" stroke:none;fill-rule:nonzero;fill:rgb(0%,0%,0%);fill-opacity:1;" />
<path d="M 224.972656 69.152344 C 224.6875 68.074219 223.582031 67.429688 222.507812 67.714844 L 213.359375 70.121094 C 212.277344 70.402344 211.636719 71.511719 211.917969 72.585938 C 212.15625 73.492188 212.976562 74.09375 213.871094 74.09375 C 214.042969 74.09375 214.214844 74.074219 214.386719 74.027344 L 223.535156 71.621094 C 224.613281 71.335938 225.257812 70.230469 224.972656 69.152344 Z M 224.972656 69.152344 " style=" stroke:none;fill-rule:nonzero;fill:rgb(0%,0%,0%);fill-opacity:1;" />
</g>
</svg>